<svg width="1500" height="1500" viewBox="0 0 1500 1500" fill="none" xmlns="http://www.w3.org/2000/svg">
<g clip-path="url(#clip0_284_55)">
<circle cx="750" cy="750" r="750" fill="#FADAA1"/>
<circle cx="750" cy="1000" r="500" fill="#FFF8EC"/>
<path d="M540.82 914.379L519.58 976H506.738L533.496 904.906H541.699L540.82 914.379ZM558.594 976L537.305 914.379L536.377 904.906H544.629L571.484 976H558.594ZM557.568 949.633V959.35H518.896V949.633H557.568ZM599.854 967.602C601.774 967.602 603.499 967.227 605.029 966.479C606.592 965.697 607.845 964.623 608.789 963.256C609.766 961.889 610.303 960.31 610.4 958.52H621.484C621.419 961.938 620.41 965.046 618.457 967.846C616.504 970.645 613.916 972.875 610.693 974.535C607.471 976.163 603.906 976.977 600 976.977C595.964 976.977 592.448 976.293 589.453 974.926C586.458 973.526 583.968 971.605 581.982 969.164C579.997 966.723 578.499 963.907 577.49 960.717C576.514 957.527 576.025 954.109 576.025 950.463V948.754C576.025 945.108 576.514 941.69 577.49 938.5C578.499 935.277 579.997 932.445 581.982 930.004C583.968 927.562 586.458 925.658 589.453 924.291C592.448 922.891 595.947 922.191 599.951 922.191C604.183 922.191 607.894 923.038 611.084 924.73C614.274 926.391 616.781 928.718 618.604 931.713C620.459 934.675 621.419 938.126 621.484 942.064H610.4C610.303 940.111 609.814 938.354 608.936 936.791C608.089 935.196 606.885 933.926 605.322 932.982C603.792 932.038 601.953 931.566 599.805 931.566C597.428 931.566 595.459 932.055 593.896 933.031C592.334 933.975 591.113 935.277 590.234 936.938C589.355 938.565 588.721 940.404 588.33 942.455C587.972 944.473 587.793 946.573 587.793 948.754V950.463C587.793 952.644 587.972 954.76 588.33 956.811C588.688 958.861 589.307 960.701 590.186 962.328C591.097 963.923 592.334 965.209 593.896 966.186C595.459 967.13 597.445 967.602 599.854 967.602ZM652.1 967.602C654.02 967.602 655.745 967.227 657.275 966.479C658.838 965.697 660.091 964.623 661.035 963.256C662.012 961.889 662.549 960.31 662.646 958.52H673.73C673.665 961.938 672.656 965.046 670.703 967.846C668.75 970.645 666.162 972.875 662.939 974.535C659.717 976.163 656.152 976.977 652.246 976.977C648.21 976.977 644.694 976.293 641.699 974.926C638.704 973.526 636.214 971.605 634.229 969.164C632.243 966.723 630.745 963.907 629.736 960.717C628.76 957.527 628.271 954.109 628.271 950.463V948.754C628.271 945.108 628.76 941.69 629.736 938.5C630.745 935.277 632.243 932.445 634.229 930.004C636.214 927.562 638.704 925.658 641.699 924.291C644.694 922.891 648.193 922.191 652.197 922.191C656.429 922.191 660.14 923.038 663.33 924.73C666.52 926.391 669.027 928.718 670.85 931.713C672.705 934.675 673.665 938.126 673.73 942.064H662.646C662.549 940.111 662.061 938.354 661.182 936.791C660.335 935.196 659.131 933.926 657.568 932.982C656.038 932.038 654.199 931.566 652.051 931.566C649.674 931.566 647.705 932.055 646.143 933.031C644.58 933.975 643.359 935.277 642.48 936.938C641.602 938.565 640.967 940.404 640.576 942.455C640.218 944.473 640.039 946.573 640.039 948.754V950.463C640.039 952.644 640.218 954.76 640.576 956.811C640.934 958.861 641.553 960.701 642.432 962.328C643.343 963.923 644.58 965.209 646.143 966.186C647.705 967.13 649.691 967.602 652.1 967.602ZM706.055 976.977C702.148 976.977 698.617 976.342 695.459 975.072C692.334 973.77 689.665 971.964 687.451 969.652C685.27 967.341 683.594 964.623 682.422 961.498C681.25 958.373 680.664 955.004 680.664 951.391V949.438C680.664 945.303 681.266 941.56 682.471 938.207C683.675 934.854 685.352 931.99 687.5 929.613C689.648 927.204 692.188 925.365 695.117 924.096C698.047 922.826 701.221 922.191 704.639 922.191C708.415 922.191 711.719 922.826 714.551 924.096C717.383 925.365 719.727 927.156 721.582 929.467C723.47 931.745 724.87 934.464 725.781 937.621C726.725 940.779 727.197 944.262 727.197 948.07V953.1H686.377V944.652H715.576V943.725C715.511 941.609 715.088 939.623 714.307 937.768C713.558 935.912 712.402 934.415 710.84 933.275C709.277 932.136 707.194 931.566 704.59 931.566C702.637 931.566 700.895 931.99 699.365 932.836C697.868 933.65 696.615 934.838 695.605 936.4C694.596 937.963 693.815 939.851 693.262 942.064C692.741 944.245 692.48 946.703 692.48 949.438V951.391C692.48 953.702 692.79 955.85 693.408 957.836C694.059 959.789 695.003 961.498 696.24 962.963C697.477 964.428 698.975 965.583 700.732 966.43C702.49 967.243 704.492 967.65 706.738 967.65C709.57 967.65 712.093 967.081 714.307 965.941C716.52 964.802 718.441 963.191 720.068 961.107L726.27 967.113C725.13 968.773 723.649 970.368 721.826 971.898C720.003 973.396 717.773 974.617 715.137 975.561C712.533 976.505 709.505 976.977 706.055 976.977ZM766.016 961.693C766.016 960.521 765.723 959.464 765.137 958.52C764.551 957.543 763.428 956.664 761.768 955.883C760.14 955.102 757.731 954.385 754.541 953.734C751.742 953.116 749.17 952.383 746.826 951.537C744.515 950.658 742.529 949.6 740.869 948.363C739.209 947.126 737.923 945.661 737.012 943.969C736.1 942.276 735.645 940.323 735.645 938.109C735.645 935.961 736.117 933.926 737.061 932.006C738.005 930.085 739.355 928.393 741.113 926.928C742.871 925.463 745.003 924.307 747.51 923.461C750.049 922.615 752.881 922.191 756.006 922.191C760.433 922.191 764.225 922.94 767.383 924.438C770.573 925.902 773.014 927.904 774.707 930.443C776.4 932.95 777.246 935.782 777.246 938.939H765.479C765.479 937.54 765.12 936.238 764.404 935.033C763.721 933.796 762.679 932.803 761.279 932.055C759.88 931.273 758.122 930.883 756.006 930.883C753.988 930.883 752.311 931.208 750.977 931.859C749.674 932.478 748.698 933.292 748.047 934.301C747.428 935.31 747.119 936.417 747.119 937.621C747.119 938.5 747.282 939.298 747.607 940.014C747.965 940.697 748.551 941.332 749.365 941.918C750.179 942.471 751.286 942.992 752.686 943.48C754.118 943.969 755.908 944.441 758.057 944.896C762.093 945.743 765.56 946.833 768.457 948.168C771.387 949.47 773.633 951.163 775.195 953.246C776.758 955.297 777.539 957.901 777.539 961.059C777.539 963.402 777.035 965.551 776.025 967.504C775.049 969.424 773.617 971.101 771.729 972.533C769.84 973.933 767.578 975.023 764.941 975.805C762.337 976.586 759.408 976.977 756.152 976.977C751.367 976.977 747.314 976.13 743.994 974.438C740.674 972.712 738.151 970.515 736.426 967.846C734.733 965.144 733.887 962.344 733.887 959.447H745.264C745.394 961.628 745.996 963.37 747.07 964.672C748.177 965.941 749.544 966.869 751.172 967.455C752.832 968.008 754.541 968.285 756.299 968.285C758.415 968.285 760.189 968.008 761.621 967.455C763.053 966.869 764.144 966.088 764.893 965.111C765.641 964.102 766.016 962.963 766.016 961.693ZM817.48 961.693C817.48 960.521 817.188 959.464 816.602 958.52C816.016 957.543 814.893 956.664 813.232 955.883C811.605 955.102 809.196 954.385 806.006 953.734C803.206 953.116 800.635 952.383 798.291 951.537C795.98 950.658 793.994 949.6 792.334 948.363C790.674 947.126 789.388 945.661 788.477 943.969C787.565 942.276 787.109 940.323 787.109 938.109C787.109 935.961 787.581 933.926 788.525 932.006C789.469 930.085 790.82 928.393 792.578 926.928C794.336 925.463 796.468 924.307 798.975 923.461C801.514 922.615 804.346 922.191 807.471 922.191C811.898 922.191 815.69 922.94 818.848 924.438C822.038 925.902 824.479 927.904 826.172 930.443C827.865 932.95 828.711 935.782 828.711 938.939H816.943C816.943 937.54 816.585 936.238 815.869 935.033C815.186 933.796 814.144 932.803 812.744 932.055C811.344 931.273 809.587 930.883 807.471 930.883C805.452 930.883 803.776 931.208 802.441 931.859C801.139 932.478 800.163 933.292 799.512 934.301C798.893 935.31 798.584 936.417 798.584 937.621C798.584 938.5 798.747 939.298 799.072 940.014C799.43 940.697 800.016 941.332 800.83 941.918C801.644 942.471 802.751 942.992 804.15 943.48C805.583 943.969 807.373 944.441 809.521 944.896C813.558 945.743 817.025 946.833 819.922 948.168C822.852 949.47 825.098 951.163 826.66 953.246C828.223 955.297 829.004 957.901 829.004 961.059C829.004 963.402 828.499 965.551 827.49 967.504C826.514 969.424 825.081 971.101 823.193 972.533C821.305 973.933 819.043 975.023 816.406 975.805C813.802 976.586 810.872 976.977 807.617 976.977C802.832 976.977 798.779 976.13 795.459 974.438C792.139 972.712 789.616 970.515 787.891 967.846C786.198 965.144 785.352 962.344 785.352 959.447H796.729C796.859 961.628 797.461 963.37 798.535 964.672C799.642 965.941 801.009 966.869 802.637 967.455C804.297 968.008 806.006 968.285 807.764 968.285C809.88 968.285 811.654 968.008 813.086 967.455C814.518 966.869 815.609 966.088 816.357 965.111C817.106 964.102 817.48 962.963 817.48 961.693ZM851.904 923.168V976H840.088V923.168H851.904ZM839.307 909.301C839.307 907.51 839.893 906.029 841.064 904.857C842.269 903.653 843.929 903.051 846.045 903.051C848.128 903.051 849.772 903.653 850.977 904.857C852.181 906.029 852.783 907.51 852.783 909.301C852.783 911.059 852.181 912.523 850.977 913.695C849.772 914.867 848.128 915.453 846.045 915.453C843.929 915.453 842.269 914.867 841.064 913.695C839.893 912.523 839.307 911.059 839.307 909.301ZM864.844 901H876.611V964.721L875.488 976H864.844V901ZM911.084 949.096V950.121C911.084 954.027 910.645 957.624 909.766 960.912C908.919 964.167 907.617 966.999 905.859 969.408C904.134 971.817 901.986 973.689 899.414 975.023C896.875 976.326 893.929 976.977 890.576 976.977C887.288 976.977 884.424 976.358 881.982 975.121C879.541 973.884 877.49 972.126 875.83 969.848C874.202 967.569 872.884 964.851 871.875 961.693C870.866 958.536 870.15 955.053 869.727 951.244V947.973C870.15 944.132 870.866 940.648 871.875 937.523C872.884 934.366 874.202 931.648 875.83 929.369C877.49 927.058 879.525 925.284 881.934 924.047C884.375 922.81 887.223 922.191 890.479 922.191C893.864 922.191 896.842 922.842 899.414 924.145C902.018 925.447 904.183 927.302 905.908 929.711C907.633 932.087 908.919 934.919 909.766 938.207C910.645 941.495 911.084 945.124 911.084 949.096ZM899.316 950.121V949.096C899.316 946.719 899.121 944.49 898.73 942.406C898.34 940.29 897.689 938.435 896.777 936.84C895.898 935.245 894.694 933.992 893.164 933.08C891.667 932.136 889.795 931.664 887.549 931.664C885.465 931.664 883.675 932.022 882.178 932.738C880.68 933.454 879.427 934.431 878.418 935.668C877.409 936.905 876.611 938.337 876.025 939.965C875.472 941.592 875.098 943.35 874.902 945.238V954.076C875.195 956.518 875.814 958.764 876.758 960.814C877.734 962.833 879.102 964.46 880.859 965.697C882.617 966.902 884.88 967.504 887.646 967.504C889.827 967.504 891.667 967.064 893.164 966.186C894.661 965.307 895.85 964.086 896.729 962.523C897.64 960.928 898.291 959.073 898.682 956.957C899.105 954.841 899.316 952.562 899.316 950.121ZM933.643 901V976H921.826V901H933.643ZM969.824 976.977C965.918 976.977 962.386 976.342 959.229 975.072C956.104 973.77 953.434 971.964 951.221 969.652C949.04 967.341 947.363 964.623 946.191 961.498C945.02 958.373 944.434 955.004 944.434 951.391V949.438C944.434 945.303 945.036 941.56 946.24 938.207C947.445 934.854 949.121 931.99 951.27 929.613C953.418 927.204 955.957 925.365 958.887 924.096C961.816 922.826 964.99 922.191 968.408 922.191C972.184 922.191 975.488 922.826 978.32 924.096C981.152 925.365 983.496 927.156 985.352 929.467C987.24 931.745 988.639 934.464 989.551 937.621C990.495 940.779 990.967 944.262 990.967 948.07V953.1H950.146V944.652H979.346V943.725C979.281 941.609 978.857 939.623 978.076 937.768C977.327 935.912 976.172 934.415 974.609 933.275C973.047 932.136 970.964 931.566 968.359 931.566C966.406 931.566 964.665 931.99 963.135 932.836C961.637 933.65 960.384 934.838 959.375 936.4C958.366 937.963 957.585 939.851 957.031 942.064C956.51 944.245 956.25 946.703 956.25 949.438V951.391C956.25 953.702 956.559 955.85 957.178 957.836C957.829 959.789 958.773 961.498 960.01 962.963C961.247 964.428 962.744 965.583 964.502 966.43C966.26 967.243 968.262 967.65 970.508 967.65C973.34 967.65 975.863 967.081 978.076 965.941C980.29 964.802 982.21 963.191 983.838 961.107L990.039 967.113C988.9 968.773 987.419 970.368 985.596 971.898C983.773 973.396 981.543 974.617 978.906 975.561C976.302 976.505 973.275 976.977 969.824 976.977ZM623.73 1093H608.545L608.643 1083.28H623.73C628.125 1083.28 631.803 1082.32 634.766 1080.4C637.76 1078.48 640.007 1075.73 641.504 1072.15C643.034 1068.57 643.799 1064.31 643.799 1059.36V1055.5C643.799 1051.66 643.359 1048.26 642.48 1045.29C641.634 1042.33 640.365 1039.84 638.672 1037.82C637.012 1035.81 634.961 1034.28 632.52 1033.23C630.111 1032.19 627.327 1031.67 624.17 1031.67H608.252V1021.91H624.17C628.89 1021.91 633.203 1022.7 637.109 1024.3C641.016 1025.86 644.385 1028.12 647.217 1031.09C650.081 1034.05 652.279 1037.6 653.809 1041.73C655.339 1045.86 656.104 1050.49 656.104 1055.6V1059.36C656.104 1064.47 655.339 1069.09 653.809 1073.22C652.279 1077.36 650.081 1080.91 647.217 1083.87C644.352 1086.8 640.934 1089.06 636.963 1090.66C633.024 1092.22 628.613 1093 623.73 1093ZM615.332 1021.91V1093H603.076V1021.91H615.332ZM690.527 1093.98C686.621 1093.98 683.089 1093.34 679.932 1092.07C676.807 1090.77 674.137 1088.96 671.924 1086.65C669.743 1084.34 668.066 1081.62 666.895 1078.5C665.723 1075.37 665.137 1072 665.137 1068.39V1066.44C665.137 1062.3 665.739 1058.56 666.943 1055.21C668.148 1051.85 669.824 1048.99 671.973 1046.61C674.121 1044.2 676.66 1042.37 679.59 1041.1C682.52 1039.83 685.693 1039.19 689.111 1039.19C692.887 1039.19 696.191 1039.83 699.023 1041.1C701.855 1042.37 704.199 1044.16 706.055 1046.47C707.943 1048.75 709.342 1051.46 710.254 1054.62C711.198 1057.78 711.67 1061.26 711.67 1065.07V1070.1H670.85V1061.65H700.049V1060.72C699.984 1058.61 699.561 1056.62 698.779 1054.77C698.031 1052.91 696.875 1051.41 695.312 1050.28C693.75 1049.14 691.667 1048.57 689.062 1048.57C687.109 1048.57 685.368 1048.99 683.838 1049.84C682.34 1050.65 681.087 1051.84 680.078 1053.4C679.069 1054.96 678.288 1056.85 677.734 1059.06C677.214 1061.25 676.953 1063.7 676.953 1066.44V1068.39C676.953 1070.7 677.262 1072.85 677.881 1074.84C678.532 1076.79 679.476 1078.5 680.713 1079.96C681.95 1081.43 683.447 1082.58 685.205 1083.43C686.963 1084.24 688.965 1084.65 691.211 1084.65C694.043 1084.65 696.566 1084.08 698.779 1082.94C700.993 1081.8 702.913 1080.19 704.541 1078.11L710.742 1084.11C709.603 1085.77 708.122 1087.37 706.299 1088.9C704.476 1090.4 702.246 1091.62 699.609 1092.56C697.005 1093.5 693.978 1093.98 690.527 1093.98ZM750.488 1078.69C750.488 1077.52 750.195 1076.46 749.609 1075.52C749.023 1074.54 747.9 1073.66 746.24 1072.88C744.613 1072.1 742.204 1071.39 739.014 1070.73C736.214 1070.12 733.643 1069.38 731.299 1068.54C728.988 1067.66 727.002 1066.6 725.342 1065.36C723.682 1064.13 722.396 1062.66 721.484 1060.97C720.573 1059.28 720.117 1057.32 720.117 1055.11C720.117 1052.96 720.589 1050.93 721.533 1049.01C722.477 1047.09 723.828 1045.39 725.586 1043.93C727.344 1042.46 729.476 1041.31 731.982 1040.46C734.521 1039.61 737.354 1039.19 740.479 1039.19C744.906 1039.19 748.698 1039.94 751.855 1041.44C755.046 1042.9 757.487 1044.9 759.18 1047.44C760.872 1049.95 761.719 1052.78 761.719 1055.94H749.951C749.951 1054.54 749.593 1053.24 748.877 1052.03C748.193 1050.8 747.152 1049.8 745.752 1049.05C744.352 1048.27 742.594 1047.88 740.479 1047.88C738.46 1047.88 736.784 1048.21 735.449 1048.86C734.147 1049.48 733.171 1050.29 732.52 1051.3C731.901 1052.31 731.592 1053.42 731.592 1054.62C731.592 1055.5 731.755 1056.3 732.08 1057.01C732.438 1057.7 733.024 1058.33 733.838 1058.92C734.652 1059.47 735.758 1059.99 737.158 1060.48C738.59 1060.97 740.381 1061.44 742.529 1061.9C746.566 1062.74 750.033 1063.83 752.93 1065.17C755.859 1066.47 758.105 1068.16 759.668 1070.25C761.23 1072.3 762.012 1074.9 762.012 1078.06C762.012 1080.4 761.507 1082.55 760.498 1084.5C759.521 1086.42 758.089 1088.1 756.201 1089.53C754.313 1090.93 752.051 1092.02 749.414 1092.8C746.81 1093.59 743.88 1093.98 740.625 1093.98C735.84 1093.98 731.787 1093.13 728.467 1091.44C725.146 1089.71 722.624 1087.51 720.898 1084.85C719.206 1082.14 718.359 1079.34 718.359 1076.45H729.736C729.867 1078.63 730.469 1080.37 731.543 1081.67C732.65 1082.94 734.017 1083.87 735.645 1084.46C737.305 1085.01 739.014 1085.29 740.771 1085.29C742.887 1085.29 744.661 1085.01 746.094 1084.46C747.526 1083.87 748.617 1083.09 749.365 1082.11C750.114 1081.1 750.488 1079.96 750.488 1078.69ZM784.912 1040.17V1093H773.096V1040.17H784.912ZM772.314 1026.3C772.314 1024.51 772.9 1023.03 774.072 1021.86C775.277 1020.65 776.937 1020.05 779.053 1020.05C781.136 1020.05 782.78 1020.65 783.984 1021.86C785.189 1023.03 785.791 1024.51 785.791 1026.3C785.791 1028.06 785.189 1029.52 783.984 1030.7C782.78 1031.87 781.136 1032.45 779.053 1032.45C776.937 1032.45 775.277 1031.87 774.072 1030.7C772.9 1029.52 772.314 1028.06 772.314 1026.3ZM831.641 1040.17H842.334V1091.54C842.334 1096.29 841.325 1100.32 839.307 1103.64C837.288 1106.96 834.473 1109.49 830.859 1111.21C827.246 1112.97 823.063 1113.85 818.311 1113.85C816.292 1113.85 814.046 1113.56 811.572 1112.97C809.131 1112.38 806.755 1111.44 804.443 1110.14C802.165 1108.87 800.26 1107.19 798.73 1105.11L804.248 1098.18C806.136 1100.42 808.219 1102.07 810.498 1103.11C812.777 1104.15 815.169 1104.67 817.676 1104.67C820.378 1104.67 822.673 1104.17 824.561 1103.16C826.481 1102.18 827.962 1100.73 829.004 1098.81C830.046 1096.89 830.566 1094.55 830.566 1091.78V1052.13L831.641 1040.17ZM795.752 1067.17V1066.14C795.752 1062.14 796.24 1058.49 797.217 1055.21C798.193 1051.89 799.593 1049.04 801.416 1046.66C803.239 1044.25 805.452 1042.41 808.057 1041.14C810.661 1039.84 813.607 1039.19 816.895 1039.19C820.312 1039.19 823.226 1039.81 825.635 1041.05C828.076 1042.28 830.111 1044.06 831.738 1046.37C833.366 1048.65 834.635 1051.38 835.547 1054.57C836.491 1057.73 837.191 1061.25 837.646 1065.12V1068.39C837.223 1072.17 836.507 1075.62 835.498 1078.74C834.489 1081.87 833.154 1084.57 831.494 1086.85C829.834 1089.13 827.783 1090.88 825.342 1092.12C822.933 1093.36 820.085 1093.98 816.797 1093.98C813.574 1093.98 810.661 1093.31 808.057 1091.97C805.485 1090.64 803.271 1088.77 801.416 1086.36C799.593 1083.95 798.193 1081.12 797.217 1077.86C796.24 1074.58 795.752 1071.01 795.752 1067.17ZM807.52 1066.14V1067.17C807.52 1069.58 807.747 1071.82 808.203 1073.91C808.691 1075.99 809.424 1077.83 810.4 1079.43C811.41 1080.99 812.679 1082.23 814.209 1083.14C815.771 1084.02 817.611 1084.46 819.727 1084.46C822.493 1084.46 824.756 1083.87 826.514 1082.7C828.304 1081.53 829.671 1079.95 830.615 1077.96C831.592 1075.94 832.275 1073.7 832.666 1071.22V1062.38C832.471 1060.46 832.064 1058.67 831.445 1057.01C830.859 1055.35 830.062 1053.9 829.053 1052.67C828.044 1051.4 826.774 1050.42 825.244 1049.74C823.714 1049.02 821.908 1048.66 819.824 1048.66C817.708 1048.66 815.869 1049.12 814.307 1050.03C812.744 1050.94 811.458 1052.2 810.449 1053.79C809.473 1055.39 808.74 1057.24 808.252 1059.36C807.764 1061.47 807.52 1063.74 807.52 1066.14ZM866.211 1051.45V1093H854.443V1040.17H865.527L866.211 1051.45ZM864.111 1064.63L860.303 1064.58C860.335 1060.84 860.856 1057.4 861.865 1054.28C862.907 1051.15 864.339 1048.47 866.162 1046.22C868.018 1043.98 870.231 1042.25 872.803 1041.05C875.374 1039.81 878.239 1039.19 881.396 1039.19C883.936 1039.19 886.23 1039.55 888.281 1040.27C890.365 1040.95 892.139 1042.07 893.604 1043.63C895.101 1045.2 896.24 1047.23 897.021 1049.74C897.803 1052.21 898.193 1055.26 898.193 1058.87V1093H886.377V1058.82C886.377 1056.28 886.003 1054.28 885.254 1052.81C884.538 1051.32 883.48 1050.26 882.08 1049.64C880.713 1048.99 879.004 1048.66 876.953 1048.66C874.935 1048.66 873.128 1049.09 871.533 1049.93C869.938 1050.78 868.587 1051.94 867.48 1053.4C866.406 1054.87 865.576 1056.56 864.99 1058.48C864.404 1060.4 864.111 1062.45 864.111 1064.63Z" fill="#40456C"/>
<path d="M571.875 211.945V283.039H559.619V211.945H571.875ZM597.607 241.486V283.039H585.84V230.207H596.924L597.607 241.486ZM595.508 254.67L591.699 254.621C591.732 250.877 592.253 247.443 593.262 244.318C594.303 241.193 595.736 238.508 597.559 236.262C599.414 234.016 601.628 232.29 604.199 231.086C606.771 229.849 609.635 229.23 612.793 229.23C615.332 229.23 617.627 229.588 619.678 230.305C621.761 230.988 623.535 232.111 625 233.674C626.497 235.236 627.637 237.271 628.418 239.777C629.199 242.251 629.59 245.295 629.59 248.908V283.039H617.773V248.859C617.773 246.32 617.399 244.318 616.65 242.853C615.934 241.356 614.876 240.298 613.477 239.68C612.109 239.029 610.4 238.703 608.35 238.703C606.331 238.703 604.525 239.126 602.93 239.973C601.335 240.819 599.984 241.974 598.877 243.439C597.803 244.904 596.973 246.597 596.387 248.517C595.801 250.438 595.508 252.489 595.508 254.67ZM663.184 274.641C665.104 274.641 666.829 274.266 668.359 273.517C669.922 272.736 671.175 271.662 672.119 270.295C673.096 268.928 673.633 267.349 673.73 265.558H684.814C684.749 268.976 683.74 272.085 681.787 274.885C679.834 277.684 677.246 279.914 674.023 281.574C670.801 283.202 667.236 284.016 663.33 284.016C659.294 284.016 655.778 283.332 652.783 281.965C649.788 280.565 647.298 278.644 645.312 276.203C643.327 273.762 641.829 270.946 640.82 267.756C639.844 264.566 639.355 261.148 639.355 257.502V255.793C639.355 252.147 639.844 248.729 640.82 245.539C641.829 242.316 643.327 239.484 645.312 237.043C647.298 234.601 649.788 232.697 652.783 231.33C655.778 229.93 659.277 229.23 663.281 229.23C667.513 229.23 671.224 230.077 674.414 231.769C677.604 233.43 680.111 235.757 681.934 238.752C683.789 241.714 684.749 245.165 684.814 249.103H673.73C673.633 247.15 673.145 245.392 672.266 243.83C671.419 242.235 670.215 240.965 668.652 240.021C667.122 239.077 665.283 238.605 663.135 238.605C660.758 238.605 658.789 239.094 657.227 240.07C655.664 241.014 654.443 242.316 653.564 243.976C652.686 245.604 652.051 247.443 651.66 249.494C651.302 251.512 651.123 253.612 651.123 255.793V257.502C651.123 259.683 651.302 261.799 651.66 263.849C652.018 265.9 652.637 267.739 653.516 269.367C654.427 270.962 655.664 272.248 657.227 273.224C658.789 274.168 660.775 274.641 663.184 274.641ZM706.445 208.039V283.039H694.629V208.039H706.445ZM751.123 270.588V230.207H762.939V283.039H751.807L751.123 270.588ZM752.783 259.601L756.738 259.504C756.738 263.052 756.348 266.323 755.566 269.318C754.785 272.28 753.581 274.868 751.953 277.082C750.326 279.263 748.242 280.972 745.703 282.209C743.164 283.413 740.12 284.016 736.572 284.016C734.001 284.016 731.641 283.641 729.492 282.892C727.344 282.144 725.488 280.988 723.926 279.426C722.396 277.863 721.208 275.829 720.361 273.322C719.515 270.816 719.092 267.821 719.092 264.338V230.207H730.859V264.435C730.859 266.356 731.087 267.967 731.543 269.269C731.999 270.539 732.617 271.564 733.398 272.346C734.18 273.127 735.091 273.68 736.133 274.006C737.174 274.331 738.281 274.494 739.453 274.494C742.806 274.494 745.443 273.843 747.363 272.541C749.316 271.206 750.7 269.416 751.514 267.17C752.36 264.924 752.783 262.401 752.783 259.601ZM804.639 268.732C804.639 267.56 804.346 266.502 803.76 265.558C803.174 264.582 802.051 263.703 800.391 262.922C798.763 262.141 796.354 261.424 793.164 260.773C790.365 260.155 787.793 259.422 785.449 258.576C783.138 257.697 781.152 256.639 779.492 255.402C777.832 254.165 776.546 252.7 775.635 251.008C774.723 249.315 774.268 247.362 774.268 245.148C774.268 243 774.74 240.965 775.684 239.045C776.628 237.124 777.979 235.432 779.736 233.967C781.494 232.502 783.626 231.346 786.133 230.5C788.672 229.654 791.504 229.23 794.629 229.23C799.056 229.23 802.848 229.979 806.006 231.476C809.196 232.941 811.637 234.943 813.33 237.482C815.023 239.989 815.869 242.821 815.869 245.978H804.102C804.102 244.579 803.743 243.277 803.027 242.072C802.344 240.835 801.302 239.842 799.902 239.094C798.503 238.312 796.745 237.922 794.629 237.922C792.611 237.922 790.934 238.247 789.6 238.898C788.298 239.517 787.321 240.331 786.67 241.34C786.051 242.349 785.742 243.456 785.742 244.66C785.742 245.539 785.905 246.336 786.23 247.053C786.589 247.736 787.174 248.371 787.988 248.957C788.802 249.51 789.909 250.031 791.309 250.519C792.741 251.008 794.531 251.48 796.68 251.935C800.716 252.782 804.183 253.872 807.08 255.207C810.01 256.509 812.256 258.202 813.818 260.285C815.381 262.336 816.162 264.94 816.162 268.098C816.162 270.441 815.658 272.59 814.648 274.543C813.672 276.463 812.24 278.14 810.352 279.572C808.464 280.972 806.201 282.062 803.564 282.844C800.96 283.625 798.031 284.016 794.775 284.016C789.99 284.016 785.938 283.169 782.617 281.476C779.297 279.751 776.774 277.554 775.049 274.885C773.356 272.183 772.51 269.383 772.51 266.486H783.887C784.017 268.667 784.619 270.409 785.693 271.711C786.8 272.98 788.167 273.908 789.795 274.494C791.455 275.047 793.164 275.324 794.922 275.324C797.038 275.324 798.812 275.047 800.244 274.494C801.676 273.908 802.767 273.127 803.516 272.15C804.264 271.141 804.639 270.002 804.639 268.732ZM839.062 230.207V283.039H827.246V230.207H839.062ZM826.465 216.34C826.465 214.549 827.051 213.068 828.223 211.896C829.427 210.692 831.087 210.09 833.203 210.09C835.286 210.09 836.93 210.692 838.135 211.896C839.339 213.068 839.941 214.549 839.941 216.34C839.941 218.098 839.339 219.562 838.135 220.734C836.93 221.906 835.286 222.492 833.203 222.492C831.087 222.492 829.427 221.906 828.223 220.734C827.051 219.562 826.465 218.098 826.465 216.34ZM869.141 273.713L882.08 230.207H894.287L875.928 283.039H868.311L869.141 273.713ZM859.229 230.207L872.412 273.908L873.047 283.039H865.43L846.973 230.207H859.229ZM924.17 284.016C920.264 284.016 916.732 283.381 913.574 282.111C910.449 280.809 907.78 279.002 905.566 276.691C903.385 274.38 901.709 271.662 900.537 268.537C899.365 265.412 898.779 262.043 898.779 258.43V256.476C898.779 252.342 899.382 248.599 900.586 245.246C901.79 241.893 903.467 239.029 905.615 236.652C907.764 234.243 910.303 232.404 913.232 231.135C916.162 229.865 919.336 229.23 922.754 229.23C926.53 229.23 929.834 229.865 932.666 231.135C935.498 232.404 937.842 234.195 939.697 236.506C941.585 238.784 942.985 241.502 943.896 244.66C944.84 247.818 945.312 251.301 945.312 255.109V260.139H904.492V251.691H933.691V250.764C933.626 248.648 933.203 246.662 932.422 244.807C931.673 242.951 930.518 241.454 928.955 240.314C927.393 239.175 925.309 238.605 922.705 238.605C920.752 238.605 919.01 239.029 917.48 239.875C915.983 240.689 914.73 241.877 913.721 243.439C912.712 245.002 911.93 246.89 911.377 249.103C910.856 251.284 910.596 253.742 910.596 256.476V258.43C910.596 260.741 910.905 262.889 911.523 264.875C912.174 266.828 913.118 268.537 914.355 270.002C915.592 271.467 917.09 272.622 918.848 273.469C920.605 274.282 922.607 274.689 924.854 274.689C927.686 274.689 930.208 274.12 932.422 272.98C934.635 271.841 936.556 270.23 938.184 268.146L944.385 274.152C943.245 275.812 941.764 277.407 939.941 278.937C938.118 280.435 935.889 281.655 933.252 282.599C930.648 283.543 927.62 284.016 924.17 284.016ZM623.73 400.039H608.545L608.643 390.322H623.73C628.125 390.322 631.803 389.362 634.766 387.441C637.76 385.521 640.007 382.77 641.504 379.189C643.034 375.609 643.799 371.344 643.799 366.396V362.539C643.799 358.698 643.359 355.296 642.48 352.334C641.634 349.372 640.365 346.881 638.672 344.863C637.012 342.845 634.961 341.315 632.52 340.273C630.111 339.232 627.327 338.711 624.17 338.711H608.252V328.945H624.17C628.89 328.945 633.203 329.743 637.109 331.338C641.016 332.9 644.385 335.163 647.217 338.125C650.081 341.087 652.279 344.635 653.809 348.769C655.339 352.904 656.104 357.526 656.104 362.637V366.396C656.104 371.507 655.339 376.129 653.809 380.264C652.279 384.398 650.081 387.946 647.217 390.908C644.352 393.838 640.934 396.1 636.963 397.695C633.024 399.258 628.613 400.039 623.73 400.039ZM615.332 328.945V400.039H603.076V328.945H615.332ZM690.527 401.016C686.621 401.016 683.089 400.381 679.932 399.111C676.807 397.809 674.137 396.002 671.924 393.691C669.743 391.38 668.066 388.662 666.895 385.537C665.723 382.412 665.137 379.043 665.137 375.43V373.476C665.137 369.342 665.739 365.599 666.943 362.246C668.148 358.893 669.824 356.029 671.973 353.652C674.121 351.243 676.66 349.404 679.59 348.135C682.52 346.865 685.693 346.23 689.111 346.23C692.887 346.23 696.191 346.865 699.023 348.135C701.855 349.404 704.199 351.195 706.055 353.506C707.943 355.784 709.342 358.502 710.254 361.66C711.198 364.818 711.67 368.301 711.67 372.109V377.139H670.85V368.691H700.049V367.764C699.984 365.648 699.561 363.662 698.779 361.807C698.031 359.951 696.875 358.454 695.312 357.314C693.75 356.175 691.667 355.605 689.062 355.605C687.109 355.605 685.368 356.029 683.838 356.875C682.34 357.689 681.087 358.877 680.078 360.439C679.069 362.002 678.288 363.89 677.734 366.103C677.214 368.284 676.953 370.742 676.953 373.476V375.43C676.953 377.741 677.262 379.889 677.881 381.875C678.532 383.828 679.476 385.537 680.713 387.002C681.95 388.467 683.447 389.622 685.205 390.469C686.963 391.282 688.965 391.689 691.211 391.689C694.043 391.689 696.566 391.12 698.779 389.98C700.993 388.841 702.913 387.23 704.541 385.146L710.742 391.152C709.603 392.812 708.122 394.407 706.299 395.937C704.476 397.435 702.246 398.655 699.609 399.599C697.005 400.543 693.978 401.016 690.527 401.016ZM750.488 385.732C750.488 384.56 750.195 383.502 749.609 382.558C749.023 381.582 747.9 380.703 746.24 379.922C744.613 379.141 742.204 378.424 739.014 377.773C736.214 377.155 733.643 376.422 731.299 375.576C728.988 374.697 727.002 373.639 725.342 372.402C723.682 371.165 722.396 369.7 721.484 368.008C720.573 366.315 720.117 364.362 720.117 362.148C720.117 360 720.589 357.965 721.533 356.045C722.477 354.124 723.828 352.432 725.586 350.967C727.344 349.502 729.476 348.346 731.982 347.5C734.521 346.654 737.354 346.23 740.479 346.23C744.906 346.23 748.698 346.979 751.855 348.476C755.046 349.941 757.487 351.943 759.18 354.482C760.872 356.989 761.719 359.821 761.719 362.978H749.951C749.951 361.579 749.593 360.277 748.877 359.072C748.193 357.835 747.152 356.842 745.752 356.094C744.352 355.312 742.594 354.922 740.479 354.922C738.46 354.922 736.784 355.247 735.449 355.898C734.147 356.517 733.171 357.331 732.52 358.34C731.901 359.349 731.592 360.456 731.592 361.66C731.592 362.539 731.755 363.336 732.08 364.053C732.438 364.736 733.024 365.371 733.838 365.957C734.652 366.51 735.758 367.031 737.158 367.519C738.59 368.008 740.381 368.48 742.529 368.935C746.566 369.782 750.033 370.872 752.93 372.207C755.859 373.509 758.105 375.202 759.668 377.285C761.23 379.336 762.012 381.94 762.012 385.098C762.012 387.441 761.507 389.59 760.498 391.543C759.521 393.463 758.089 395.14 756.201 396.572C754.313 397.972 752.051 399.062 749.414 399.844C746.81 400.625 743.88 401.016 740.625 401.016C735.84 401.016 731.787 400.169 728.467 398.476C725.146 396.751 722.624 394.554 720.898 391.885C719.206 389.183 718.359 386.383 718.359 383.486H729.736C729.867 385.667 730.469 387.409 731.543 388.711C732.65 389.98 734.017 390.908 735.645 391.494C737.305 392.047 739.014 392.324 740.771 392.324C742.887 392.324 744.661 392.047 746.094 391.494C747.526 390.908 748.617 390.127 749.365 389.15C750.114 388.141 750.488 387.002 750.488 385.732ZM784.912 347.207V400.039H773.096V347.207H784.912ZM772.314 333.34C772.314 331.549 772.9 330.068 774.072 328.896C775.277 327.692 776.937 327.09 779.053 327.09C781.136 327.09 782.78 327.692 783.984 328.896C785.189 330.068 785.791 331.549 785.791 333.34C785.791 335.098 785.189 336.562 783.984 337.734C782.78 338.906 781.136 339.492 779.053 339.492C776.937 339.492 775.277 338.906 774.072 337.734C772.9 336.562 772.314 335.098 772.314 333.34ZM831.641 347.207H842.334V398.574C842.334 403.327 841.325 407.363 839.307 410.683C837.288 414.004 834.473 416.527 830.859 418.252C827.246 420.01 823.063 420.889 818.311 420.889C816.292 420.889 814.046 420.596 811.572 420.01C809.131 419.424 806.755 418.48 804.443 417.178C802.165 415.908 800.26 414.232 798.73 412.148L804.248 405.215C806.136 407.461 808.219 409.105 810.498 410.146C812.777 411.188 815.169 411.709 817.676 411.709C820.378 411.709 822.673 411.204 824.561 410.195C826.481 409.219 827.962 407.77 829.004 405.849C830.046 403.929 830.566 401.585 830.566 398.818V359.17L831.641 347.207ZM795.752 374.209V373.183C795.752 369.18 796.24 365.534 797.217 362.246C798.193 358.926 799.593 356.077 801.416 353.701C803.239 351.292 805.452 349.453 808.057 348.183C810.661 346.881 813.607 346.23 816.895 346.23C820.312 346.23 823.226 346.849 825.635 348.086C828.076 349.323 830.111 351.097 831.738 353.408C833.366 355.687 834.635 358.421 835.547 361.611C836.491 364.769 837.191 368.284 837.646 372.158V375.43C837.223 379.206 836.507 382.656 835.498 385.781C834.489 388.906 833.154 391.608 831.494 393.887C829.834 396.165 827.783 397.923 825.342 399.16C822.933 400.397 820.085 401.016 816.797 401.016C813.574 401.016 810.661 400.348 808.057 399.014C805.485 397.679 803.271 395.807 801.416 393.398C799.593 390.989 798.193 388.157 797.217 384.902C796.24 381.614 795.752 378.05 795.752 374.209ZM807.52 373.183V374.209C807.52 376.618 807.747 378.864 808.203 380.947C808.691 383.03 809.424 384.87 810.4 386.465C811.41 388.027 812.679 389.264 814.209 390.176C815.771 391.055 817.611 391.494 819.727 391.494C822.493 391.494 824.756 390.908 826.514 389.736C828.304 388.564 829.671 386.986 830.615 385C831.592 382.982 832.275 380.736 832.666 378.262V369.424C832.471 367.503 832.064 365.713 831.445 364.053C830.859 362.392 830.062 360.944 829.053 359.707C828.044 358.437 826.774 357.461 825.244 356.777C823.714 356.061 821.908 355.703 819.824 355.703C817.708 355.703 815.869 356.159 814.307 357.07C812.744 357.982 811.458 359.235 810.449 360.83C809.473 362.425 808.74 364.28 808.252 366.396C807.764 368.512 807.52 370.775 807.52 373.183ZM866.211 358.486V400.039H854.443V347.207H865.527L866.211 358.486ZM864.111 371.67L860.303 371.621C860.335 367.877 860.856 364.443 861.865 361.318C862.907 358.193 864.339 355.508 866.162 353.262C868.018 351.016 870.231 349.29 872.803 348.086C875.374 346.849 878.239 346.23 881.396 346.23C883.936 346.23 886.23 346.588 888.281 347.305C890.365 347.988 892.139 349.111 893.604 350.674C895.101 352.236 896.24 354.271 897.021 356.777C897.803 359.251 898.193 362.295 898.193 365.908V400.039H886.377V365.859C886.377 363.32 886.003 361.318 885.254 359.853C884.538 358.356 883.48 357.298 882.08 356.68C880.713 356.029 879.004 355.703 876.953 355.703C874.935 355.703 873.128 356.126 871.533 356.973C869.938 357.819 868.587 358.974 867.48 360.439C866.406 361.904 865.576 363.597 864.99 365.517C864.404 367.438 864.111 369.489 864.111 371.67Z" fill="#40456C"/>
</g>
<defs>
<clipPath id="clip0_284_55">
<rect width="1500" height="1500" fill="white"/>
</clipPath>
</defs>
</svg>
