<svg width="1001" height="192" viewBox="0 0 1001 192" fill="none" xmlns="http://www.w3.org/2000/svg">
<g clip-path="url(#clip0_259_40)">
<g clip-path="url(#clip1_259_40)">
<g clip-path="url(#clip2_259_40)">
<g clip-path="url(#clip3_259_40)">
<g clip-path="url(#clip4_259_40)">
<g clip-path="url(#clip5_259_40)">
<g clip-path="url(#clip6_259_40)">
<path d="M246.136 139.527C241.667 139.527 237.966 138.527 235.032 136.525C232.099 134.544 229.913 131.901 228.475 128.599C227.037 125.296 226.319 121.653 226.319 117.67C226.319 115.436 226.892 112.978 228.038 110.297C229.184 107.635 231.215 105.09 234.129 102.662C237.043 100.233 241.142 98.2417 246.427 96.6874C251.731 95.1332 258.531 94.356 266.827 94.356V91.0046C266.827 87.4104 265.962 84.4184 264.233 82.0287C262.523 79.6584 259.065 78.4733 253.858 78.4733C250.07 78.4733 246.369 79.1144 242.755 80.3967C239.141 81.679 236.48 83.2721 234.77 85.1761L228.941 71.1876C231.856 69.1865 235.751 67.3505 240.628 65.6797C245.524 64.0088 250.954 63.1734 256.918 63.1734C264.107 63.1734 269.693 64.2614 273.675 66.4374C277.658 68.6328 280.456 71.7316 282.068 75.7339C283.662 79.7361 284.458 84.4378 284.458 89.8389V137.487H268.867L267.555 127.142C262.504 135.399 255.364 139.527 246.136 139.527ZM253.858 125.539C256.054 125.539 258.395 124.655 260.882 122.887C263.388 121.099 265.37 118.826 266.827 116.067V105.722C266.341 105.625 265.817 105.576 265.253 105.576C264.709 105.576 264.068 105.576 263.33 105.576C260.668 105.576 257.861 105.877 254.908 106.479C251.974 107.082 249.487 108.141 247.447 109.656C245.407 111.152 244.387 113.24 244.387 115.922C244.387 119.419 245.164 121.896 246.718 123.353C248.273 124.81 250.653 125.539 253.858 125.539ZM332.543 139.236C324.811 139.236 318.516 137.497 313.659 134.019C308.802 130.541 305.227 125.937 302.935 120.206C300.623 114.474 299.467 108.238 299.467 101.496C299.467 94.7932 300.749 88.5275 303.313 82.699C305.897 76.8705 309.715 72.1591 314.767 68.5648C319.818 64.9705 326.084 63.1734 333.563 63.1734C337.741 63.1734 341.529 63.6106 344.929 64.4848C348.329 65.3591 351.632 67.1077 354.838 69.7305L348.863 85.1761C347.406 83.0001 345.279 81.3098 342.481 80.1053C339.683 78.9202 337.051 78.3276 334.583 78.3276C323.995 78.3276 318.701 86.0018 318.701 101.35C318.701 109.413 320.022 115.261 322.664 118.894C325.306 122.547 329.28 124.373 334.583 124.373C338.081 124.373 341.16 123.703 343.822 122.362C346.503 121.022 348.523 119.603 349.883 118.107L355.42 131.076C354.06 132.533 351.389 134.252 347.406 136.234C343.423 138.235 338.469 139.236 332.543 139.236ZM398.26 139.236C390.528 139.236 384.233 137.497 379.376 134.019C374.519 130.541 370.934 125.937 368.622 120.206C366.33 114.474 365.183 108.238 365.183 101.496C365.183 94.7932 366.466 88.5275 369.03 82.699C371.614 76.8705 375.432 72.1591 380.483 68.5648C385.535 64.9705 391.8 63.1734 399.28 63.1734C403.457 63.1734 407.246 63.6106 410.646 64.4848C414.046 65.3591 417.349 67.1077 420.554 69.7305L414.58 85.1761C413.123 83.0001 410.995 81.3098 408.198 80.1053C405.4 78.9202 402.768 78.3276 400.3 78.3276C389.712 78.3276 384.417 86.0018 384.417 101.35C384.417 109.413 385.739 115.261 388.381 118.894C391.023 122.547 394.996 124.373 400.3 124.373C403.797 124.373 406.877 123.703 409.538 122.362C412.219 121.022 414.23 119.603 415.571 118.107L421.137 131.076C419.777 132.533 417.106 134.252 413.123 136.234C409.14 138.235 404.186 139.236 398.26 139.236ZM464.822 139.381C456.662 139.381 450.085 137.672 445.092 134.252C440.08 130.813 436.437 126.267 434.164 120.614C431.871 114.96 430.725 108.782 430.725 102.079C430.725 95.0263 432.027 88.5567 434.63 82.6698C437.234 76.7636 441.051 72.0328 446.083 68.4774C451.096 64.9414 457.245 63.1734 464.53 63.1734C475.41 63.1734 483.017 66.3208 487.349 72.6156C491.662 78.891 493.819 87.7892 493.819 99.3103C493.819 100.321 493.799 101.603 493.761 103.157C493.702 104.711 493.625 106.052 493.527 107.179H449.813C450.105 112.91 451.727 117.398 454.68 120.643C457.614 123.907 462.015 125.539 467.882 125.539C470.893 125.539 474.128 124.868 477.586 123.528C481.025 122.187 483.57 120.575 485.222 118.69L491.05 132.533C489.107 133.835 486.038 135.301 481.841 136.933C477.645 138.565 471.972 139.381 464.822 139.381ZM449.668 95.8132H475.313C475.313 90.7035 474.866 86.8081 473.973 84.127C473.079 81.4264 471.855 79.5613 470.301 78.5316C468.746 77.5213 466.969 77.0162 464.968 77.0162C460.013 77.0162 456.303 78.8522 453.835 82.5241C451.348 86.1767 449.959 90.6064 449.668 95.8132ZM530.83 138.799C525.545 138.799 521.213 138.303 517.832 137.312C514.452 136.302 511.829 135.156 509.964 133.873C508.099 132.591 506.797 131.513 506.059 130.639L511.45 116.796C513.587 118.544 516.317 120.264 519.639 121.954C522.981 123.664 526.857 124.519 531.267 124.519C534.725 124.519 537.144 123.81 538.524 122.391C539.903 120.992 540.593 119.467 540.593 117.816C540.593 115.523 539.019 113.454 535.872 111.608C532.705 109.763 529.033 107.946 524.856 106.159C522.388 105.09 519.766 103.73 516.987 102.079C514.228 100.427 511.858 98.2417 509.876 95.5217C507.914 92.8018 506.933 89.3046 506.933 85.0304C506.933 78.4636 509.323 73.2276 514.102 69.3225C518.901 65.4174 525.691 63.4648 534.473 63.4648C540.107 63.4648 544.877 64.3003 548.782 65.9711C552.706 67.6419 555.32 69.1379 556.621 70.4591L551.667 83.5733C549.782 82.1161 547.383 80.727 544.469 79.4059C541.554 78.1042 538.417 77.4533 535.056 77.4533C531.364 77.4533 528.79 77.939 527.333 78.9104C525.876 79.8819 525.147 81.4361 525.147 83.5733C525.147 85.9435 526.449 87.8961 529.052 89.4309C531.656 90.9658 534.774 92.4618 538.407 93.9189C544.488 96.2892 549.384 99.2131 553.095 102.691C556.806 106.169 558.661 110.579 558.661 115.922C558.661 119.904 557.738 123.635 555.893 127.112C554.047 130.571 551.084 133.388 547.004 135.564C542.924 137.72 537.533 138.799 530.83 138.799ZM594.507 138.799C589.203 138.799 584.87 138.303 581.509 137.312C578.128 136.302 575.506 135.156 573.641 133.873C571.756 132.591 570.454 131.513 569.735 130.639L575.127 116.796C577.264 118.544 579.994 120.264 583.316 121.954C586.638 123.664 590.514 124.519 594.944 124.519C598.383 124.519 600.801 123.81 602.2 122.391C603.58 120.992 604.269 119.467 604.269 117.816C604.269 115.523 602.686 113.454 599.519 111.608C596.372 109.763 592.71 107.946 588.532 106.159C586.046 105.09 583.423 103.73 580.664 102.079C577.886 100.427 575.515 98.2417 573.553 95.5217C571.591 92.8018 570.61 89.3046 570.61 85.0304C570.61 78.4636 572.999 73.2276 577.779 69.3225C582.558 65.4174 589.348 63.4648 598.149 63.4648C603.784 63.4648 608.553 64.3003 612.459 65.9711C616.364 67.6419 618.977 69.1379 620.298 70.4591L615.344 83.5733C613.44 82.1161 611.031 80.727 608.116 79.4059C605.202 78.1042 602.074 77.4533 598.732 77.4533C595.041 77.4533 592.467 77.939 591.01 78.9104C589.552 79.8819 588.824 81.4361 588.824 83.5733C588.824 85.9435 590.126 87.8961 592.729 89.4309C595.313 90.9658 598.431 92.4618 602.084 93.9189C608.145 96.2892 613.041 99.2131 616.772 102.691C620.482 106.169 622.338 110.579 622.338 115.922C622.338 119.904 621.415 123.635 619.569 127.112C617.724 130.571 614.761 133.388 610.681 135.564C606.601 137.72 601.209 138.799 594.507 138.799ZM658.183 53.1192H637.783V33.7394H658.183V53.1192ZM657.455 137.487H638.512V64.922H657.455V137.487ZM715.274 139.527C710.028 139.527 705.744 137.876 702.422 134.573C699.1 131.27 696.875 127.433 695.748 123.062V137.487H679.72V26.7451H697.205V64.922L695.748 77.4533C696.525 74.1505 698.07 71.4305 700.382 69.2934C702.694 67.1562 705.326 65.5728 708.28 64.5431C711.252 63.5328 714.118 63.0277 716.877 63.0277C725.911 63.0277 732.74 66.2237 737.364 72.6156C741.968 78.9882 744.271 88.4207 744.271 100.913C744.271 109.598 742.979 116.796 740.395 122.508C737.791 128.22 734.294 132.484 729.903 135.301C725.493 138.119 720.617 139.527 715.274 139.527ZM711.048 125.102C713.438 125.102 715.711 124.315 717.867 122.741C720.024 121.148 721.782 118.583 723.142 115.047C724.502 111.492 725.182 106.781 725.182 100.913C725.182 92.7532 723.813 86.8761 721.073 83.2818C718.334 79.6876 715.089 77.8904 711.339 77.8904C706.832 77.8904 703.403 80.2121 701.052 84.8555C698.682 89.4795 697.497 95.2206 697.497 102.079C697.497 108.918 698.701 114.464 701.11 118.719C703.52 122.974 706.832 125.102 711.048 125.102ZM781.136 53.1192H760.736V33.7394H781.136V53.1192ZM780.408 137.487H761.465V64.922H780.408V137.487ZM820.187 137.487H802.41V26.7451H820.187V137.487ZM861.861 53.1192H841.461V33.7394H861.861V53.1192ZM861.133 137.487H842.19V64.922H861.133V137.487ZM906.712 139.673C898.513 139.673 892.966 137.536 890.071 133.261C887.176 128.987 885.729 122.527 885.729 113.882V80.2219H876.258V64.922H886.458L887.478 49.6221L903.36 42.7736V64.922H921.283V80.2219H903.36V113.444C903.36 117.66 903.963 120.584 905.167 122.216C906.352 123.848 907.984 124.664 910.063 124.664C912.2 124.664 914.464 124.101 916.853 122.974C919.224 121.867 921.089 120.73 922.449 119.564L925.946 134.281C924.45 135.35 922.497 136.283 920.088 137.079C917.679 137.895 915.251 138.527 912.803 138.973C910.355 139.44 908.324 139.673 906.712 139.673ZM961.208 165.027H943.286L955.088 132.533L927.84 64.922H948.094L958.877 97.2703L963.54 114.027L968.203 97.2703L979.131 64.922H998.22L961.208 165.027Z" fill="#0D814D"/>
</g>
</g>
</g>
</g>
<g clip-path="url(#clip7_259_40)">
<g clip-path="url(#clip8_259_40)">
<path d="M59.8562 191.439C28.1918 191.439 2.52441 165.772 2.52441 134.107V57.665C2.52441 26.0007 28.1918 0.333252 59.8562 0.333252H136.298C167.963 0.333252 193.63 26.0007 193.63 57.665V134.107C193.63 165.772 167.963 191.439 136.298 191.439H59.8562Z" fill="#F56607"/>
<g clip-path="url(#clip9_259_40)">
<g clip-path="url(#clip10_259_40)">
<path d="M155.012 108.282L115.656 41.2907C115.403 40.8685 115.044 40.5192 114.615 40.2766C114.187 40.0341 113.703 39.9066 113.21 39.9066C112.717 39.9066 112.233 40.0341 111.805 40.2766C111.376 40.5192 111.017 40.8685 110.764 41.2907L98.0781 62.9163L85.3625 41.3209C85.1088 40.8987 84.7501 40.5494 84.3214 40.3068C83.8927 40.0643 83.4086 39.9368 82.916 39.9368C82.4235 39.9368 81.9393 40.0643 81.5106 40.3068C81.0819 40.5494 80.7232 40.8987 80.4695 41.3209L41.1447 108.282C40.4802 109.399 40.6614 110.789 41.5675 111.695L80.9226 151.05C81.4662 151.593 82.1911 151.865 82.916 151.865C83.6409 151.865 84.3658 151.593 84.9094 151.05L98.0781 137.911L111.217 151.05C111.76 151.593 112.485 151.865 113.21 151.865C113.935 151.865 114.66 151.593 115.203 151.05L154.558 111.695C155.495 110.789 155.676 109.369 155.012 108.282ZM82.9462 145.07L47.125 109.248L82.9462 48.2979L94.8161 68.4737L71.4085 108.282C70.744 109.399 70.9253 110.789 71.8314 111.695L94.0611 133.925L82.9462 145.07ZM98.0781 74.0614L118.767 109.248L98.0781 129.938L77.3888 109.248L98.0781 74.0614ZM113.21 145.07L102.065 133.925L124.295 111.695C125.201 110.789 125.382 109.369 124.718 108.282L101.34 68.504L113.21 48.3281L149.031 109.279L113.21 145.07Z" fill="white"/>
</g>
</g>
</g>
</g>
</g>
</g>
</g>
<defs>
<clipPath id="clip0_259_40">
<rect width="1000" height="191.333" fill="white" transform="translate(0.393921 0.219482)"/>
</clipPath>
<clipPath id="clip1_259_40">
<rect width="995.739" height="191.105" fill="white" transform="translate(2.52441 0.333252)"/>
</clipPath>
<clipPath id="clip2_259_40">
<rect width="995.739" height="191.105" fill="white" transform="translate(2.52441 0.333252)"/>
</clipPath>
<clipPath id="clip3_259_40">
<rect width="771.988" height="138.282" fill="white" transform="translate(226.275 26.7451)"/>
</clipPath>
<clipPath id="clip4_259_40">
<rect width="771.988" height="138.282" fill="white" transform="translate(226.275 26.7451)"/>
</clipPath>
<clipPath id="clip5_259_40">
<rect width="771.988" height="138.282" fill="white" transform="translate(226.275 26.7451)"/>
</clipPath>
<clipPath id="clip6_259_40">
<rect width="771.988" height="138.282" fill="white" transform="translate(226.275 26.7451)"/>
</clipPath>
<clipPath id="clip7_259_40">
<rect width="191.105" height="191.105" fill="white" transform="translate(2.52441 0.333252)"/>
</clipPath>
<clipPath id="clip8_259_40">
<rect width="191.105" height="191.105" fill="white" transform="translate(2.52441 0.333252)"/>
</clipPath>
<clipPath id="clip9_259_40">
<rect width="114.663" height="111.959" fill="white" transform="translate(40.7455 39.9066)"/>
</clipPath>
<clipPath id="clip10_259_40">
<rect width="114.663" height="111.959" fill="white" transform="translate(40.7455 39.9066)"/>
</clipPath>
</defs>
</svg>
